<!-- Service 4: Content Marketing - Blog/content creation -->
<svg width="400" height="300" xmlns="http://www.w3.org/2000/svg">
  <rect width="400" height="300" fill="#f0f4f8"/>
  <!-- Document stack -->
  <rect x="120" y="70" width="160" height="200" rx="8" fill="white" stroke="#cbd5e0" stroke-width="2"/>
  <rect x="130" y="60" width="160" height="200" rx="8" fill="white" stroke="#cbd5e0" stroke-width="2"/>
  <rect x="140" y="50" width="160" height="200" rx="8" fill="white" stroke="#cbd5e0" stroke-width="2"/>
  <!-- Content lines -->
  <rect x="160" y="80" width="120" height="12" rx="2" fill="#2d3748"/>
  <rect x="160" y="105" width="100" height="6" rx="2" fill="#a0aec0"/>
  <rect x="160" y="118" width="110" height="6" rx="2" fill="#a0aec0"/>
  <rect x="160" y="131" width="90" height="6" rx="2" fill="#a0aec0"/>
  <rect x="160" y="155" width="120" height="8" rx="2" fill="#4299e1"/>
  <rect x="160" y="170" width="100" height="6" rx="2" fill="#a0aec0"/>
  <rect x="160" y="183" width="110" height="6" rx="2" fill="#a0aec0"/>
  <!-- WordPress icon style -->
  <circle cx="160" cy="210" r="15" fill="#21759b"/>
  <text x="160" y="216" font-family="Arial" font-size="14" fill="white" text-anchor="middle" font-weight="bold">W</text>
  <text x="200" y="40" font-family="Arial" font-size="24" fill="#2d3748" text-anchor="middle" font-weight="bold">Content Marketing</text>
</svg>
